<svg width="373" height="367" viewBox="0 0 373 367" fill="none" xmlns="http://www.w3.org/2000/svg">
<g clip-path="url(#clip0_3_2)">
<mask id="mask0_3_2" style="mask-type:luminance" maskUnits="userSpaceOnUse" x="0" y="0" width="373" height="367">
<path d="M373 0H0V367H373V0Z" fill="white"/>
</mask>
<g mask="url(#mask0_3_2)">
<path d="M276.287 254.123C278.654 250.17 283.148 245.676 285.515 241.723C287.881 237.77 291.036 232.5 292.063 227.771L332.017 224.306C335.484 224.541 339.189 221.364 338.877 215.859L339.703 154.222C340.73 149.493 337.502 145.847 334.035 145.612L293.219 141.479C289.679 132.328 283.46 121.625 277.003 114.333L293.495 77.7478C295.861 73.7951 294.761 69.608 290.743 67.2797L237.179 36.235C233.161 33.9067 228.905 34.9896 226.539 38.9424L202.802 69.5536C191.061 68.0733 180.66 67.3693 170.809 68.7591L146.558 36.9568C144.669 34.087 139.863 33.0762 136.946 34.9352L82.556 65.5281C77.5113 67.9288 75.145 71.8815 78.3736 75.5272L93.8744 112.907C91.508 116.859 87.0136 121.354 84.6473 125.307C82.2809 129.259 79.1254 134.529 78.0984 139.258L38.1448 142.723C34.6778 142.489 30.9723 145.666 31.2841 151.171L30.4585 212.808C29.4312 217.537 32.6597 221.183 36.1267 221.417L76.9421 225.551C80.4827 234.701 86.7012 245.404 93.1584 252.696L76.667 289.282C74.3006 293.234 75.4012 297.422 79.4185 299.75L132.983 330.794C137 333.123 141.257 332.04 143.623 328.087L168.149 296.159C179.889 297.638 190.29 298.342 200.141 296.953L223.603 330.073C225.493 332.942 230.298 333.953 233.215 332.094L287.605 301.501C290.522 299.642 292.889 295.69 291.788 291.502L276.287 254.123ZM153.529 236.218C124.069 219.143 114.163 181.457 131.516 152.47C148.87 123.484 187.172 113.737 216.633 130.812C246.093 147.886 255.999 185.572 238.645 214.559C221.292 243.546 182.989 253.292 153.529 236.218Z" fill="url(#paint0_linear_3_2)"/>
</g>
</g>
<defs>
<linearGradient id="paint0_linear_3_2" x1="-4.14445" y1="187.639" x2="374.842" y2="189.022" gradientUnits="userSpaceOnUse">
<stop stop-color="#DE93FA"/>
<stop offset="0.985123" stop-color="#98A7F9"/>
</linearGradient>
<clipPath id="clip0_3_2">
<rect width="373" height="367" fill="white"/>
</clipPath>
</defs>
</svg>
