<svg width="77" height="77" viewBox="0 0 77 77" fill="none" xmlns="http://www.w3.org/2000/svg">
<g clip-path="url(#clip0_201_3)">
<path d="M57.0352 53.3173C57.5237 52.488 58.4515 51.5451 58.94 50.7157C59.4285 49.8864 60.0798 48.7807 60.2919 47.7885L68.5397 47.0615C69.2554 47.1107 70.0203 46.4442 69.9559 45.2892L70.1264 32.3571C70.3384 31.365 69.672 30.6 68.9563 30.5508L60.5305 29.6836C59.7997 27.7637 58.5159 25.5181 57.183 23.9882L60.5874 16.3122C61.0759 15.4829 60.8487 14.6044 60.0193 14.1159L48.9618 7.60245C48.1324 7.11395 47.2539 7.34115 46.7654 8.17047L41.8652 14.593C39.4416 14.2824 37.2945 14.1347 35.2609 14.4263L30.2547 7.75387C29.8647 7.15176 28.8725 6.93969 28.2704 7.32974L17.0424 13.7484C16.001 14.2521 15.5125 15.0814 16.179 15.8463L19.3789 23.6889C18.8904 24.5182 17.9626 25.4611 17.4741 26.2905C16.9856 27.1198 16.3342 28.2255 16.1222 29.2177L7.8744 29.9447C7.15869 29.8955 6.39374 30.562 6.45812 31.717L6.28767 44.6491C6.0756 45.6412 6.74209 46.4062 7.4578 46.4554L15.8835 47.3226C16.6144 49.2425 17.8981 51.4881 19.2311 53.018L15.8267 60.694C15.3382 61.5233 15.5654 62.4018 16.3947 62.8903L27.4523 69.4037C28.2816 69.8922 29.1602 69.665 29.6487 68.8357L34.7117 62.1368C37.1353 62.4473 39.2824 62.595 41.316 62.3034L46.1593 69.2523C46.5494 69.8544 47.5415 70.0665 48.1436 69.6765L59.3716 63.2578C59.9738 62.8677 60.4623 62.0384 60.2351 61.1599L57.0352 53.3173ZM31.6936 49.5607C25.612 45.9783 23.5671 38.0714 27.1495 31.9897C30.7318 25.908 38.6388 23.8631 44.7204 27.4455C50.8021 31.0279 52.847 38.9348 49.2646 45.0165C45.6822 51.0982 37.7753 53.143 31.6936 49.5607Z" fill="#9A4EAE"/>
</g>
<defs>
<clipPath id="clip0_201_3">
<rect width="77" height="77" fill="white"/>
</clipPath>
</defs>
</svg>
